<svg xmlns="http://www.w3.org/2000/svg" xmlns:xlink="http://www.w3.org/1999/xlink" width="500" zoomAndPan="magnify" viewBox="0 0 375 374.999991" height="500" preserveAspectRatio="xMidYMid meet" version="1.0"><defs><g/><clipPath id="d53cda7a02"><path d="M 176 187.5 L 247.613281 187.5 L 247.613281 239.25 L 176 239.25 Z M 176 187.5 " clip-rule="nonzero"/></clipPath><clipPath id="8070585d8c"><rect x="0" width="272" y="0" height="51"/></clipPath></defs><g clip-path="url(#d53cda7a02)"><path fill="#1d1d1b" d="M 245.628906 215.964844 C 245.617188 212.949219 246.960938 199.246094 247.011719 198.824219 C 247.1875 197.492188 247.59375 192.269531 247.5 191.09375 C 247.34375 189.613281 246.640625 188.707031 246.445312 188.480469 C 245.878906 187.839844 244.886719 187.5 244.089844 187.757812 C 242.859375 188.179688 242.304688 188.765625 241.890625 189.40625 C 241.117188 190.601562 240.742188 192.144531 240.527344 193.597656 C 240.039062 196.75 239.84375 200.027344 239.875 203.230469 C 239.886719 204.140625 239.917969 205.035156 239.980469 205.941406 C 239.988281 206.136719 240.125 207.074219 240.277344 208.167969 C 239.925781 210.742188 237.242188 212.339844 234.402344 212.152344 C 233.6875 212.101562 233.089844 211.742188 232.605469 211.257812 C 232.128906 210.804688 231.796875 210.1875 231.589844 209.566406 C 231.054688 207.980469 230.929688 206.261719 230.753906 204.613281 C 230.539062 202.65625 230.371094 200.699219 230.25 198.738281 C 230.1875 197.6875 230.21875 196.585938 229.992188 195.554688 C 229.886719 195.101562 229.660156 194.546875 229.308594 194.136719 C 228.535156 193.21875 226.910156 193.566406 226.5 193.742188 C 226.097656 193.910156 225.722656 194.144531 225.402344 194.402344 C 224.464844 195.15625 223.90625 196.289062 223.648438 197.441406 C 223.378906 198.625 223.347656 199.875 223.378906 201.078125 C 223.410156 202.355469 223.542969 203.632812 223.773438 204.890625 C 224.207031 207.261719 225.011719 209.671875 226.300781 211.710938 C 227.5625 213.699219 229.546875 215.347656 231.933594 215.511719 C 238.523438 215.976562 240.433594 210.074219 240.546875 209.835938 C 240.710938 210.917969 240.867188 211.875 240.917969 212.144531 C 241.1875 213.515625 241.519531 214.875 241.847656 216.222656 C 242.488281 218.859375 243.066406 221.519531 244.101562 224.003906 C 244.460938 224.867188 245.648438 227.421875 245.855469 227.835938 C 246.0625 228.257812 246.558594 228.402344 246.921875 228.152344 C 247.324219 227.886719 247.363281 227.371094 247.199219 226.929688 C 246.765625 225.816406 245.660156 222.324219 245.628906 215.964844 Z M 226.199219 201.5 C 226.148438 202.449219 224.742188 202.386719 224.722656 201.4375 C 224.710938 200.335938 224.816406 196.289062 226.425781 195.371094 C 226.652344 195.238281 226.941406 195.351562 226.921875 195.597656 C 226.921875 195.886719 226.4375 196.78125 226.199219 201.5 Z M 244.078125 190.808594 C 244.027344 191.085938 243.976562 191.351562 243.914062 191.632812 C 243.789062 192.199219 243.699219 192.773438 243.605469 193.351562 C 243.429688 194.496094 243.398438 195.660156 243.355469 196.804688 C 243.316406 197.914062 241.683594 197.90625 241.632812 196.804688 C 241.570312 195.515625 241.746094 194.238281 242.023438 192.992188 C 242.160156 192.402344 242.335938 191.828125 242.550781 191.261719 C 242.664062 190.953125 242.800781 190.640625 242.953125 190.34375 C 243.109375 190.054688 243.316406 189.859375 243.523438 189.621094 C 243.730469 189.394531 244.121094 189.582031 244.121094 189.871094 C 244.121094 190.1875 244.140625 190.476562 244.078125 190.808594 Z M 201.117188 188.964844 C 200.550781 188.324219 199.558594 187.984375 198.765625 188.242188 C 197.535156 188.664062 196.976562 189.25 196.5625 189.890625 C 195.789062 191.085938 195.417969 192.628906 195.199219 194.082031 C 194.714844 197.234375 194.796875 207.550781 194.960938 208.652344 C 194.609375 211.226562 191.925781 212.824219 189.085938 212.636719 C 188.371094 212.585938 187.773438 212.226562 187.289062 211.742188 C 186.8125 211.289062 186.480469 210.671875 186.273438 210.050781 C 185.738281 208.464844 185.613281 206.746094 185.4375 205.097656 C 185.222656 203.140625 185.054688 201.183594 184.933594 199.222656 C 184.871094 198.171875 184.902344 197.070312 184.675781 196.039062 C 184.570312 195.585938 184.34375 195.03125 183.992188 194.617188 C 183.21875 193.703125 181.597656 194.050781 181.183594 194.226562 C 180.78125 194.390625 180.40625 194.628906 180.085938 194.886719 C 179.148438 195.640625 178.589844 196.773438 178.332031 197.925781 C 178.0625 199.109375 178.03125 200.359375 178.0625 201.5625 C 178.09375 202.839844 178.226562 204.117188 178.457031 205.375 C 178.890625 207.746094 179.695312 210.15625 180.988281 212.195312 C 182.246094 214.183594 184.230469 215.832031 186.617188 215.996094 C 193.207031 216.460938 195.117188 210.558594 195.230469 210.320312 C 195.292969 210.703125 195.210938 214.007812 195.136719 214.710938 C 194.960938 216.285156 194.847656 217.871094 194.683594 219.449219 C 194.363281 222.476562 194.042969 225.539062 193.464844 228.523438 C 193.175781 230.019531 191.511719 234.882812 187.824219 235.820312 C 186.296875 236.136719 184.644531 236.003906 183.175781 235.335938 C 181.398438 234.53125 179.910156 233.171875 178.953125 231.472656 C 177.785156 229.410156 177.320312 226.929688 177.183594 224.589844 C 177.101562 223.199219 177.132812 221.816406 177.257812 220.4375 C 177.382812 219.058594 177.617188 217.695312 177.847656 216.328125 C 177.898438 215.988281 177.402344 215.6875 177.226562 216.070312 C 176.078125 218.480469 173.382812 234.695312 183.660156 238.527344 C 184.148438 238.714844 184.644531 238.859375 185.128906 238.960938 C 186.367188 239.230469 187.609375 239.25 188.859375 239.042969 C 191.128906 238.671875 193.246094 237.375 194.652344 235.582031 C 196.121094 233.707031 196.957031 231.460938 197.574219 229.175781 C 197.886719 228.039062 198.390625 225.753906 198.867188 223.464844 C 199.433594 220.757812 200.3125 215.410156 200.5 213.234375 C 200.964844 207.992188 201.667969 199.472656 201.6875 199.296875 C 201.863281 197.96875 202.265625 192.742188 202.171875 191.570312 C 202.015625 190.105469 201.316406 189.191406 201.117188 188.964844 Z M 180.882812 202.007812 C 180.832031 202.953125 179.425781 202.890625 179.40625 201.945312 C 179.394531 200.84375 179.5 196.792969 181.109375 195.875 C 181.335938 195.742188 181.625 195.855469 181.605469 196.101562 C 181.597656 196.390625 181.121094 197.277344 180.882812 202.007812 Z M 198.765625 191.300781 C 198.710938 191.578125 198.660156 191.847656 198.597656 192.125 C 198.472656 192.691406 198.382812 193.269531 198.289062 193.847656 C 198.113281 194.988281 198.082031 196.152344 198.039062 197.296875 C 198 198.410156 196.367188 198.398438 196.316406 197.296875 C 196.253906 196.011719 196.429688 194.734375 196.707031 193.484375 C 196.84375 192.898438 197.019531 192.320312 197.234375 191.753906 C 197.347656 191.445312 197.484375 191.136719 197.636719 190.839844 C 197.792969 190.550781 198 190.355469 198.207031 190.117188 C 198.414062 189.890625 198.804688 190.074219 198.804688 190.363281 C 198.804688 190.683594 198.816406 190.980469 198.765625 191.300781 Z M 217.078125 192.960938 C 216.613281 192.527344 215.921875 193.207031 216.375 193.660156 C 219.929688 197.257812 221.066406 202.738281 219.980469 207.570312 C 219.878906 208.03125 218.253906 215.109375 214.070312 215.140625 C 212.121094 215.152344 210.105469 213.925781 209.332031 212.433594 C 208.546875 210.917969 208.503906 209.226562 208.503906 208.488281 C 208.515625 205.570312 209.332031 203.664062 209.890625 202.542969 C 210.695312 200.925781 211.664062 199.378906 212.648438 197.863281 C 213.628906 196.339844 214.722656 194.824219 215.476562 193.167969 C 215.953125 192.125 216.085938 190.972656 215.464844 189.941406 C 215.175781 189.457031 214.703125 189.035156 214.164062 188.859375 C 213.898438 188.777344 211.53125 187.902344 209.0625 189.839844 C 207.792969 190.828125 206.707031 191.960938 205.964844 193.382812 C 203.875 197.320312 203.792969 203.972656 203.886719 205.097656 C 204.023438 206.664062 204.339844 208.21875 204.816406 209.722656 C 205.695312 212.523438 206.996094 215.503906 209.476562 217.242188 C 210.136719 217.707031 210.910156 218.078125 211.695312 218.261719 C 212.089844 218.355469 212.523438 218.4375 212.9375 218.4375 C 212.976562 218.4375 213.007812 218.4375 213.050781 218.429688 C 213.289062 218.5 213.546875 218.53125 213.78125 218.53125 C 214.453125 218.542969 215.117188 218.324219 215.726562 218.058594 C 216.738281 217.613281 217.625 216.902344 218.339844 216.078125 C 219.125 215.164062 219.710938 214.121094 220.167969 213.007812 C 220.640625 211.84375 221.375 209.199219 221.601562 206.210938 C 221.746094 204.367188 221.707031 202.5 221.335938 200.6875 C 220.746094 197.761719 219.300781 195.011719 217.078125 192.960938 Z M 207.84375 195.277344 C 207.648438 195.433594 207.390625 195.269531 207.367188 195 C 207.191406 193.15625 210.445312 190.726562 211.355469 190.105469 C 212.128906 189.570312 212.996094 190.683594 212.253906 191.269531 C 208.515625 194.195312 208.070312 195.101562 207.84375 195.277344 Z M 207.84375 195.277344 " fill-opacity="1" fill-rule="nonzero"/></g><g transform="matrix(1, 0, 0, 1, 52, 183)"><g clip-path="url(#8070585d8c)"><g fill="#000000" fill-opacity="1"><g transform="translate(1.025234, 37.309697)"><g><path d="M 1 -10.015625 C 1 -12.097656 1.425781 -13.914062 2.28125 -15.46875 C 3.132812 -17.03125 4.320312 -18.226562 5.84375 -19.0625 C 7.363281 -19.90625 9.101562 -20.328125 11.0625 -20.328125 C 13.570312 -20.328125 15.671875 -19.664062 17.359375 -18.34375 C 19.054688 -17.03125 20.164062 -15.175781 20.6875 -12.78125 L 14.15625 -12.78125 C 13.601562 -14.320312 12.535156 -15.09375 10.953125 -15.09375 C 9.828125 -15.09375 8.925781 -14.65625 8.25 -13.78125 C 7.582031 -12.90625 7.25 -11.648438 7.25 -10.015625 C 7.25 -8.390625 7.582031 -7.140625 8.25 -6.265625 C 8.925781 -5.390625 9.828125 -4.953125 10.953125 -4.953125 C 12.535156 -4.953125 13.601562 -5.71875 14.15625 -7.25 L 20.6875 -7.25 C 20.164062 -4.90625 19.050781 -3.0625 17.34375 -1.71875 C 15.644531 -0.382812 13.550781 0.28125 11.0625 0.28125 C 9.101562 0.28125 7.363281 -0.132812 5.84375 -0.96875 C 4.320312 -1.8125 3.132812 -3.007812 2.28125 -4.5625 C 1.425781 -6.113281 1 -7.929688 1 -10.015625 Z M 1 -10.015625 "/></g></g></g><g fill="#000000" fill-opacity="1"><g transform="translate(22.754973, 37.309697)"><g><path d="M 11.34375 0.28125 C 9.382812 0.28125 7.617188 -0.132812 6.046875 -0.96875 C 4.484375 -1.8125 3.25 -3.007812 2.34375 -4.5625 C 1.445312 -6.113281 1 -7.929688 1 -10.015625 C 1 -12.078125 1.453125 -13.890625 2.359375 -15.453125 C 3.273438 -17.023438 4.523438 -18.226562 6.109375 -19.0625 C 7.691406 -19.90625 9.460938 -20.328125 11.421875 -20.328125 C 13.390625 -20.328125 15.160156 -19.90625 16.734375 -19.0625 C 18.316406 -18.226562 19.5625 -17.023438 20.46875 -15.453125 C 21.382812 -13.890625 21.84375 -12.078125 21.84375 -10.015625 C 21.84375 -7.960938 21.378906 -6.148438 20.453125 -4.578125 C 19.535156 -3.015625 18.28125 -1.8125 16.6875 -0.96875 C 15.09375 -0.132812 13.3125 0.28125 11.34375 0.28125 Z M 11.34375 -5.03125 C 12.519531 -5.03125 13.519531 -5.457031 14.34375 -6.3125 C 15.175781 -7.175781 15.59375 -8.410156 15.59375 -10.015625 C 15.59375 -11.617188 15.191406 -12.851562 14.390625 -13.71875 C 13.585938 -14.582031 12.597656 -15.015625 11.421875 -15.015625 C 10.222656 -15.015625 9.226562 -14.585938 8.4375 -13.734375 C 7.644531 -12.890625 7.25 -11.648438 7.25 -10.015625 C 7.25 -8.410156 7.640625 -7.175781 8.421875 -6.3125 C 9.203125 -5.457031 10.175781 -5.03125 11.34375 -5.03125 Z M 11.34375 -5.03125 "/></g></g></g><g fill="#000000" fill-opacity="1"><g transform="translate(45.634061, 37.309697)"><g><path d="M 27.796875 -20.265625 C 30.296875 -20.265625 32.28125 -19.507812 33.75 -18 C 35.21875 -16.488281 35.953125 -14.390625 35.953125 -11.703125 L 35.953125 0 L 29.84375 0 L 29.84375 -10.890625 C 29.84375 -12.179688 29.5 -13.175781 28.8125 -13.875 C 28.132812 -14.582031 27.195312 -14.9375 26 -14.9375 C 24.8125 -14.9375 23.875 -14.582031 23.1875 -13.875 C 22.5 -13.175781 22.15625 -12.179688 22.15625 -10.890625 L 22.15625 0 L 16.0625 0 L 16.0625 -10.890625 C 16.0625 -12.179688 15.71875 -13.175781 15.03125 -13.875 C 14.351562 -14.582031 13.414062 -14.9375 12.21875 -14.9375 C 11.019531 -14.9375 10.078125 -14.582031 9.390625 -13.875 C 8.710938 -13.175781 8.375 -12.179688 8.375 -10.890625 L 8.375 0 L 2.234375 0 L 2.234375 -20.046875 L 8.375 -20.046875 L 8.375 -17.53125 C 8.988281 -18.363281 9.800781 -19.023438 10.8125 -19.515625 C 11.820312 -20.015625 12.957031 -20.265625 14.21875 -20.265625 C 15.726562 -20.265625 17.078125 -19.9375 18.265625 -19.28125 C 19.453125 -18.632812 20.378906 -17.71875 21.046875 -16.53125 C 21.742188 -17.625 22.691406 -18.519531 23.890625 -19.21875 C 25.085938 -19.914062 26.390625 -20.265625 27.796875 -20.265625 Z M 27.796875 -20.265625 "/></g></g></g><g fill="#000000" fill-opacity="1"><g transform="translate(83.670087, 37.309697)"><g><path d="M 27.796875 -20.265625 C 30.296875 -20.265625 32.28125 -19.507812 33.75 -18 C 35.21875 -16.488281 35.953125 -14.390625 35.953125 -11.703125 L 35.953125 0 L 29.84375 0 L 29.84375 -10.890625 C 29.84375 -12.179688 29.5 -13.175781 28.8125 -13.875 C 28.132812 -14.582031 27.195312 -14.9375 26 -14.9375 C 24.8125 -14.9375 23.875 -14.582031 23.1875 -13.875 C 22.5 -13.175781 22.15625 -12.179688 22.15625 -10.890625 L 22.15625 0 L 16.0625 0 L 16.0625 -10.890625 C 16.0625 -12.179688 15.71875 -13.175781 15.03125 -13.875 C 14.351562 -14.582031 13.414062 -14.9375 12.21875 -14.9375 C 11.019531 -14.9375 10.078125 -14.582031 9.390625 -13.875 C 8.710938 -13.175781 8.375 -12.179688 8.375 -10.890625 L 8.375 0 L 2.234375 0 L 2.234375 -20.046875 L 8.375 -20.046875 L 8.375 -17.53125 C 8.988281 -18.363281 9.800781 -19.023438 10.8125 -19.515625 C 11.820312 -20.015625 12.957031 -20.265625 14.21875 -20.265625 C 15.726562 -20.265625 17.078125 -19.9375 18.265625 -19.28125 C 19.453125 -18.632812 20.378906 -17.71875 21.046875 -16.53125 C 21.742188 -17.625 22.691406 -18.519531 23.890625 -19.21875 C 25.085938 -19.914062 26.390625 -20.265625 27.796875 -20.265625 Z M 27.796875 -20.265625 "/></g></g></g><g fill="#000000" fill-opacity="1"><g transform="translate(121.719214, 37.309697)"><g/></g></g><g fill="#000000" fill-opacity="1"><g transform="translate(129.333605, 37.309697)"><g/></g></g><g fill="#000000" fill-opacity="1"><g transform="translate(136.947996, 37.309697)"><g/></g></g><g fill="#000000" fill-opacity="1"><g transform="translate(144.562387, 37.309697)"><g/></g></g><g fill="#000000" fill-opacity="1"><g transform="translate(152.176778, 37.309697)"><g/></g></g><g fill="#000000" fill-opacity="1"><g transform="translate(159.791169, 37.309697)"><g/></g></g><g fill="#000000" fill-opacity="1"><g transform="translate(167.40556, 37.309697)"><g/></g></g><g fill="#000000" fill-opacity="1"><g transform="translate(175.019951, 37.309697)"><g/></g></g><g fill="#000000" fill-opacity="1"><g transform="translate(182.634342, 37.309697)"><g/></g></g><g fill="#000000" fill-opacity="1"><g transform="translate(190.248733, 37.309697)"><g/></g></g><g fill="#000000" fill-opacity="1"><g transform="translate(197.86741, 37.309697)"><g><path d="M 14.4375 -20.265625 C 16.78125 -20.265625 18.648438 -19.503906 20.046875 -17.984375 C 21.453125 -16.460938 22.15625 -14.367188 22.15625 -11.703125 L 22.15625 0 L 16.0625 0 L 16.0625 -10.890625 C 16.0625 -12.222656 15.710938 -13.257812 15.015625 -14 C 14.316406 -14.75 13.382812 -15.125 12.21875 -15.125 C 11.039062 -15.125 10.101562 -14.75 9.40625 -14 C 8.71875 -13.257812 8.375 -12.222656 8.375 -10.890625 L 8.375 0 L 2.234375 0 L 2.234375 -20.046875 L 8.375 -20.046875 L 8.375 -17.390625 C 8.988281 -18.273438 9.820312 -18.972656 10.875 -19.484375 C 11.9375 -20.003906 13.125 -20.265625 14.4375 -20.265625 Z M 14.4375 -20.265625 "/></g></g></g><g fill="#000000" fill-opacity="1"><g transform="translate(222.075421, 37.309697)"><g><path d="M 5.3125 -22.125 C 4.238281 -22.125 3.359375 -22.441406 2.671875 -23.078125 C 1.992188 -23.710938 1.65625 -24.5 1.65625 -25.4375 C 1.65625 -26.394531 1.992188 -27.1875 2.671875 -27.8125 C 3.359375 -28.445312 4.238281 -28.765625 5.3125 -28.765625 C 6.363281 -28.765625 7.226562 -28.445312 7.90625 -27.8125 C 8.59375 -27.1875 8.9375 -26.394531 8.9375 -25.4375 C 8.9375 -24.5 8.59375 -23.710938 7.90625 -23.078125 C 7.226562 -22.441406 6.363281 -22.125 5.3125 -22.125 Z M 8.375 -20.046875 L 8.375 0 L 2.234375 0 L 2.234375 -20.046875 Z M 8.375 -20.046875 "/></g></g></g><g fill="#000000" fill-opacity="1"><g transform="translate(232.670908, 37.309697)"><g><path d="M 13.40625 -5.203125 L 13.40625 0 L 10.28125 0 C 8.050781 0 6.3125 -0.539062 5.0625 -1.625 C 3.820312 -2.71875 3.203125 -4.5 3.203125 -6.96875 L 3.203125 -14.9375 L 0.75 -14.9375 L 0.75 -20.046875 L 3.203125 -20.046875 L 3.203125 -24.9375 L 9.34375 -24.9375 L 9.34375 -20.046875 L 13.359375 -20.046875 L 13.359375 -14.9375 L 9.34375 -14.9375 L 9.34375 -6.890625 C 9.34375 -6.296875 9.484375 -5.863281 9.765625 -5.59375 C 10.054688 -5.332031 10.535156 -5.203125 11.203125 -5.203125 Z M 13.40625 -5.203125 "/></g></g></g><g fill="#000000" fill-opacity="1"><g transform="translate(247.253179, 37.309697)"><g><path d="M 22.703125 -20.046875 L 10.125 9.515625 L 3.515625 9.515625 L 8.125 -0.6875 L -0.03125 -20.046875 L 6.828125 -20.046875 L 11.453125 -7.5 L 16.0625 -20.046875 Z M 22.703125 -20.046875 "/></g></g></g></g></g></svg>